# xmcd
#
# Track frame offsets:
#	150
#	13747
#	32966
#	48939
#	66675
#	83797
#	97614
#	117000
#	131072
#	142750
#	158135
#	178392
#	193539
#	208011
#	225750
#	237913
#	254192
#	271067
#	284578
#	298607
#
# Disc length: 4242 seconds
#
# Revision: 0
# Processed by: cddbd v1.5.2PL0 Copyright (c) Steve Scherf et al.
# Submitted via: audiograbber 1.83.01
#
DISCID=23109014
DTITLE=Various Artist - Super 20  neu '76
DYEAR=1976
DGENRE=Pop
TTITLE0=Mireille Mathieu  - Der Zar Und Das Mädchen (Besser Frei Wie Ein Vogel 
TTITLE0=Zu Leben, Als Im Goldenen
TTITLE1=Rex Gildo  - Der Letzte Sirtaki (Komm Melina Tanz Mit Mir)
TTITLE2=Michael Holm  - Wart Auf Mich (Du, Wenn Ich Dich Verlier') -Torneró-
TTITLE3=Lena Valaitis  - Da Kommt José - Der Straßenmusikant
TTITLE4=Peter Maffay  - Josie
TTITLE5=Chris Roberts  - Du, Sag Einfach Du
TTITLE6=Marion and Anthony  - Du Gehst Fort (Tu T'en Vas)
TTITLE7=Tony Marshall  - Fahr Mich In Die Ferne
TTITLE8=Rudi Carrell  - La La La
TTITLE9=Udo Jürgens  - Ein Lied Für Alle, Die Einsam Sind
TTITLE10=Silver Convention  - Fly, Robin, Fly
TTITLE11=Juliane Werding  - Wenn Du Denkst, Du Denkst, Dann Denkst Du Nur, Du D
TTITLE11=enkst
TTITLE12=Jürgen Marcus  - Auf Dem Karussell Fahren Alle Gleich Schnell
TTITLE13=Gunter Gabriel  - Komm Unter Meine Decke
TTITLE14=Gilla  - Tu Es !
TTITLE15=Peter Alexander  - Liebe Kommt So Wie Ein Bunter Schmetterling (L'eté 
TTITLE15=Indien)
TTITLE16=Bata Illic  - Mädchen Mit Den Traurigen Augen
TTITLE17=Cindy and Bert - Orchester Erich Werner  - Sonne Für Dich
TTITLE18=Bernd Clüver  - Ein Fremdes Mädchen
TTITLE19=Frank Zander  - Disco-Polka
EXTD=
EXTT0=
EXTT1=
EXTT2=
EXTT3=
EXTT4=
EXTT5=
EXTT6=
EXTT7=
EXTT8=
EXTT9=
EXTT10=
EXTT11=
EXTT12=
EXTT13=
EXTT14=
EXTT15=
EXTT16=
EXTT17=
EXTT18=
EXTT19=
PLAYORDER=
